<svg xmlns="http://www.w3.org/2000/svg" viewBox="0 0 1056 768" width="1056" height="768" shape-rendering="crispEdges">
<rect width="1056" height="768" fill="#ffffff"/>
<rect x="144" y="96" width="24" height="24" fill="#444444"/>
<rect x="168" y="96" width="24" height="24" fill="#444444"/>
<rect x="192" y="96" width="24" height="24" fill="#444444"/>
<rect x="216" y="96" width="24" height="24" fill="#444444"/>
<rect x="240" y="96" width="24" height="24" fill="#444444"/>
<rect x="264" y="96" width="24" height="24" fill="#444444"/>
<rect x="288" y="96" width="24" height="24" fill="#444444"/>
<rect x="312" y="96" width="24" height="24" fill="#444444"/>
<rect x="336" y="96" width="24" height="24" fill="#444444"/>
<rect x="360" y="96" width="24" height="24" fill="#444444"/>
<rect x="384" y="96" width="24" height="24" fill="#444444"/>
<rect x="408" y="96" width="24" height="24" fill="#444444"/>
<rect x="432" y="96" width="24" height="24" fill="#444444"/>
<rect x="456" y="96" width="24" height="24" fill="#444444"/>
<rect x="480" y="96" width="24" height="24" fill="#444444"/>
<rect x="504" y="96" width="24" height="24" fill="#444444"/>
<rect x="528" y="96" width="24" height="24" fill="#444444"/>
<rect x="552" y="96" width="24" height="24" fill="#444444"/>
<rect x="576" y="96" width="24" height="24" fill="#444444"/>
<rect x="600" y="96" width="24" height="24" fill="#444444"/>
<rect x="624" y="96" width="24" height="24" fill="#444444"/>
<rect x="648" y="96" width="24" height="24" fill="#444444"/>
<rect x="672" y="96" width="24" height="24" fill="#444444"/>
<rect x="696" y="96" width="24" height="24" fill="#444444"/>
<rect x="720" y="96" width="24" height="24" fill="#444444"/>
<rect x="744" y="96" width="24" height="24" fill="#444444"/>
<rect x="768" y="96" width="24" height="24" fill="#444444"/>
<rect x="792" y="96" width="24" height="24" fill="#444444"/>
<rect x="816" y="96" width="24" height="24" fill="#444444"/>
<rect x="840" y="96" width="24" height="24" fill="#444444"/>
<rect x="864" y="96" width="24" height="24" fill="#444444"/>
<rect x="888" y="96" width="24" height="24" fill="#444444"/>
<rect x="144" y="120" width="24" height="24" fill="#444444"/>
<rect x="168" y="120" width="24" height="24" fill="#888888"/>
<rect x="192" y="120" width="24" height="24" fill="#bbbbbb"/>
<rect x="216" y="120" width="24" height="24" fill="#bbbbbb"/>
<rect x="240" y="120" width="24" height="24" fill="#888888"/>
<rect x="264" y="120" width="24" height="24" fill="#888888"/>
<rect x="288" y="120" width="24" height="24" fill="#bbbbbb"/>
<rect x="312" y="120" width="24" height="24" fill="#bbbbbb"/>
<rect x="336" y="120" width="24" height="24" fill="#888888"/>
<rect x="360" y="120" width="24" height="24" fill="#888888"/>
<rect x="384" y="120" width="24" height="24" fill="#bbbbbb"/>
<rect x="408" y="120" width="24" height="24" fill="#bbbbbb"/>
<rect x="432" y="120" width="24" height="24" fill="#888888"/>
<rect x="456" y="120" width="24" height="24" fill="#888888"/>
<rect x="480" y="120" width="24" height="24" fill="#bbbbbb"/>
<rect x="504" y="120" width="24" height="24" fill="#bbbbbb"/>
<rect x="528" y="120" width="24" height="24" fill="#888888"/>
<rect x="552" y="120" width="24" height="24" fill="#888888"/>
<rect x="576" y="120" width="24" height="24" fill="#bbbbbb"/>
<rect x="600" y="120" width="24" height="24" fill="#bbbbbb"/>
<rect x="624" y="120" width="24" height="24" fill="#888888"/>
<rect x="648" y="120" width="24" height="24" fill="#888888"/>
<rect x="672" y="120" width="24" height="24" fill="#bbbbbb"/>
<rect x="696" y="120" width="24" height="24" fill="#bbbbbb"/>
<rect x="720" y="120" width="24" height="24" fill="#888888"/>
<rect x="744" y="120" width="24" height="24" fill="#888888"/>
<rect x="768" y="120" width="24" height="24" fill="#bbbbbb"/>
<rect x="792" y="120" width="24" height="24" fill="#bbbbbb"/>
<rect x="816" y="120" width="24" height="24" fill="#888888"/>
<rect x="840" y="120" width="24" height="24" fill="#888888"/>
<rect x="864" y="120" width="24" height="24" fill="#bbbbbb"/>
<rect x="888" y="120" width="24" height="24" fill="#444444"/>
<rect x="144" y="144" width="24" height="24" fill="#444444"/>
<rect x="168" y="144" width="24" height="24" fill="#bbbbbb"/>
<rect x="192" y="144" width="24" height="24" fill="#888888"/>
<rect x="216" y="144" width="24" height="24" fill="#888888"/>
<rect x="240" y="144" width="24" height="24" fill="#bbbbbb"/>
<rect x="264" y="144" width="24" height="24" fill="#bbbbbb"/>
<rect x="288" y="144" width="24" height="24" fill="#888888"/>
<rect x="312" y="144" width="24" height="24" fill="#888888"/>
<rect x="336" y="144" width="24" height="24" fill="#bbbbbb"/>
<rect x="360" y="144" width="24" height="24" fill="#bbbbbb"/>
<rect x="384" y="144" width="24" height="24" fill="#888888"/>
<rect x="408" y="144" width="24" height="24" fill="#888888"/>
<rect x="432" y="144" width="24" height="24" fill="#bbbbbb"/>
<rect x="456" y="144" width="24" height="24" fill="#bbbbbb"/>
<rect x="480" y="144" width="24" height="24" fill="#888888"/>
<rect x="504" y="144" width="24" height="24" fill="#888888"/>
<rect x="528" y="144" width="24" height="24" fill="#bbbbbb"/>
<rect x="552" y="144" width="24" height="24" fill="#bbbbbb"/>
<rect x="576" y="144" width="24" height="24" fill="#888888"/>
<rect x="600" y="144" width="24" height="24" fill="#888888"/>
<rect x="624" y="144" width="24" height="24" fill="#bbbbbb"/>
<rect x="648" y="144" width="24" height="24" fill="#bbbbbb"/>
<rect x="672" y="144" width="24" height="24" fill="#888888"/>
<rect x="696" y="144" width="24" height="24" fill="#888888"/>
<rect x="720" y="144" width="24" height="24" fill="#bbbbbb"/>
<rect x="744" y="144" width="24" height="24" fill="#bbbbbb"/>
<rect x="768" y="144" width="24" height="24" fill="#888888"/>
<rect x="792" y="144" width="24" height="24" fill="#888888"/>
<rect x="816" y="144" width="24" height="24" fill="#bbbbbb"/>
<rect x="840" y="144" width="24" height="24" fill="#ffffff"/>
<rect x="864" y="144" width="24" height="24" fill="#ffffff"/>
<rect x="888" y="144" width="24" height="24" fill="#444444"/>
<rect x="144" y="168" width="24" height="24" fill="#444444"/>
<rect x="168" y="168" width="24" height="24" fill="#bbbbbb"/>
<rect x="192" y="168" width="24" height="24" fill="#888888"/>
<rect x="216" y="168" width="24" height="24" fill="#888888"/>
<rect x="240" y="168" width="24" height="24" fill="#bbbbbb"/>
<rect x="264" y="168" width="24" height="24" fill="#bbbbbb"/>
<rect x="288" y="168" width="24" height="24" fill="#888888"/>
<rect x="312" y="168" width="24" height="24" fill="#888888"/>
<rect x="336" y="168" width="24" height="24" fill="#bbbbbb"/>
<rect x="360" y="168" width="24" height="24" fill="#bbbbbb"/>
<rect x="384" y="168" width="24" height="24" fill="#888888"/>
<rect x="408" y="168" width="24" height="24" fill="#888888"/>
<rect x="432" y="168" width="24" height="24" fill="#bbbbbb"/>
<rect x="456" y="168" width="24" height="24" fill="#bbbbbb"/>
<rect x="480" y="168" width="24" height="24" fill="#888888"/>
<rect x="504" y="168" width="24" height="24" fill="#888888"/>
<rect x="528" y="168" width="24" height="24" fill="#bbbbbb"/>
<rect x="552" y="168" width="24" height="24" fill="#bbbbbb"/>
<rect x="576" y="168" width="24" height="24" fill="#888888"/>
<rect x="600" y="168" width="24" height="24" fill="#888888"/>
<rect x="624" y="168" width="24" height="24" fill="#bbbbbb"/>
<rect x="648" y="168" width="24" height="24" fill="#bbbbbb"/>
<rect x="672" y="168" width="24" height="24" fill="#888888"/>
<rect x="696" y="168" width="24" height="24" fill="#888888"/>
<rect x="720" y="168" width="24" height="24" fill="#bbbbbb"/>
<rect x="744" y="168" width="24" height="24" fill="#bbbbbb"/>
<rect x="768" y="168" width="24" height="24" fill="#888888"/>
<rect x="792" y="168" width="24" height="24" fill="#888888"/>
<rect x="816" y="168" width="24" height="24" fill="#bbbbbb"/>
<rect x="840" y="168" width="24" height="24" fill="#ffffff"/>
<rect x="864" y="168" width="24" height="24" fill="#ffffff"/>
<rect x="888" y="168" width="24" height="24" fill="#444444"/>
<rect x="144" y="192" width="24" height="24" fill="#444444"/>
<rect x="168" y="192" width="24" height="24" fill="#888888"/>
<rect x="192" y="192" width="24" height="24" fill="#bbbbbb"/>
<rect x="216" y="192" width="24" height="24" fill="#bbbbbb"/>
<rect x="240" y="192" width="24" height="24" fill="#888888"/>
<rect x="264" y="192" width="24" height="24" fill="#888888"/>
<rect x="288" y="192" width="24" height="24" fill="#bbbbbb"/>
<rect x="312" y="192" width="24" height="24" fill="#bbbbbb"/>
<rect x="336" y="192" width="24" height="24" fill="#888888"/>
<rect x="360" y="192" width="24" height="24" fill="#888888"/>
<rect x="384" y="192" width="24" height="24" fill="#bbbbbb"/>
<rect x="408" y="192" width="24" height="24" fill="#bbbbbb"/>
<rect x="432" y="192" width="24" height="24" fill="#888888"/>
<rect x="456" y="192" width="24" height="24" fill="#888888"/>
<rect x="480" y="192" width="24" height="24" fill="#bbbbbb"/>
<rect x="504" y="192" width="24" height="24" fill="#bbbbbb"/>
<rect x="528" y="192" width="24" height="24" fill="#888888"/>
<rect x="552" y="192" width="24" height="24" fill="#888888"/>
<rect x="576" y="192" width="24" height="24" fill="#bbbbbb"/>
<rect x="600" y="192" width="24" height="24" fill="#bbbbbb"/>
<rect x="624" y="192" width="24" height="24" fill="#888888"/>
<rect x="648" y="192" width="24" height="24" fill="#888888"/>
<rect x="672" y="192" width="24" height="24" fill="#bbbbbb"/>
<rect x="696" y="192" width="24" height="24" fill="#bbbbbb"/>
<rect x="720" y="192" width="24" height="24" fill="#888888"/>
<rect x="744" y="192" width="24" height="24" fill="#888888"/>
<rect x="768" y="192" width="24" height="24" fill="#bbbbbb"/>
<rect x="792" y="192" width="24" height="24" fill="#bbbbbb"/>
<rect x="816" y="192" width="24" height="24" fill="#ffffff"/>
<rect x="840" y="192" width="24" height="24" fill="#ffffff"/>
<rect x="864" y="192" width="24" height="24" fill="#ffffff"/>
<rect x="888" y="192" width="24" height="24" fill="#ffffff"/>
<rect x="144" y="216" width="24" height="24" fill="#444444"/>
<rect x="168" y="216" width="24" height="24" fill="#888888"/>
<rect x="192" y="216" width="24" height="24" fill="#bbbbbb"/>
<rect x="216" y="216" width="24" height="24" fill="#bbbbbb"/>
<rect x="240" y="216" width="24" height="24" fill="#888888"/>
<rect x="264" y="216" width="24" height="24" fill="#888888"/>
<rect x="288" y="216" width="24" height="24" fill="#bbbbbb"/>
<rect x="312" y="216" width="24" height="24" fill="#bbbbbb"/>
<rect x="336" y="216" width="24" height="24" fill="#888888"/>
<rect x="360" y="216" width="24" height="24" fill="#888888"/>
<rect x="384" y="216" width="24" height="24" fill="#bbbbbb"/>
<rect x="408" y="216" width="24" height="24" fill="#bbbbbb"/>
<rect x="432" y="216" width="24" height="24" fill="#888888"/>
<rect x="456" y="216" width="24" height="24" fill="#888888"/>
<rect x="480" y="216" width="24" height="24" fill="#bbbbbb"/>
<rect x="504" y="216" width="24" height="24" fill="#bbbbbb"/>
<rect x="528" y="216" width="24" height="24" fill="#888888"/>
<rect x="552" y="216" width="24" height="24" fill="#888888"/>
<rect x="576" y="216" width="24" height="24" fill="#bbbbbb"/>
<rect x="600" y="216" width="24" height="24" fill="#bbbbbb"/>
<rect x="624" y="216" width="24" height="24" fill="#888888"/>
<rect x="648" y="216" width="24" height="24" fill="#888888"/>
<rect x="672" y="216" width="24" height="24" fill="#bbbbbb"/>
<rect x="696" y="216" width="24" height="24" fill="#bbbbbb"/>
<rect x="720" y="216" width="24" height="24" fill="#888888"/>
<rect x="744" y="216" width="24" height="24" fill="#888888"/>
<rect x="768" y="216" width="24" height="24" fill="#bbbbbb"/>
<rect x="792" y="216" width="24" height="24" fill="#bbbbbb"/>
<rect x="816" y="216" width="24" height="24" fill="#ffffff"/>
<rect x="840" y="216" width="24" height="24" fill="#ffffff"/>
<rect x="864" y="216" width="24" height="24" fill="#ffffff"/>
<rect x="888" y="216" width="24" height="24" fill="#ffffff"/>
<rect x="144" y="240" width="24" height="24" fill="#444444"/>
<rect x="168" y="240" width="24" height="24" fill="#bbbbbb"/>
<rect x="192" y="240" width="24" height="24" fill="#888888"/>
<rect x="216" y="240" width="24" height="24" fill="#888888"/>
<rect x="240" y="240" width="24" height="24" fill="#000000"/>
<rect x="264" y="240" width="24" height="24" fill="#000000"/>
<rect x="288" y="240" width="24" height="24" fill="#888888"/>
<rect x="312" y="240" width="24" height="24" fill="#888888"/>
<rect x="336" y="240" width="24" height="24" fill="#bbbbbb"/>
<rect x="360" y="240" width="24" height="24" fill="#bbbbbb"/>
<rect x="384" y="240" width="24" height="24" fill="#888888"/>
<rect x="408" y="240" width="24" height="24" fill="#888888"/>
<rect x="432" y="240" width="24" height="24" fill="#bbbbbb"/>
<rect x="456" y="240" width="24" height="24" fill="#bbbbbb"/>
<rect x="480" y="240" width="24" height="24" fill="#888888"/>
<rect x="504" y="240" width="24" height="24" fill="#888888"/>
<rect x="528" y="240" width="24" height="24" fill="#bbbbbb"/>
<rect x="552" y="240" width="24" height="24" fill="#bbbbbb"/>
<rect x="576" y="240" width="24" height="24" fill="#888888"/>
<rect x="600" y="240" width="24" height="24" fill="#888888"/>
<rect x="624" y="240" width="24" height="24" fill="#bbbbbb"/>
<rect x="648" y="240" width="24" height="24" fill="#bbbbbb"/>
<rect x="672" y="240" width="24" height="24" fill="#888888"/>
<rect x="696" y="240" width="24" height="24" fill="#888888"/>
<rect x="720" y="240" width="24" height="24" fill="#bbbbbb"/>
<rect x="744" y="240" width="24" height="24" fill="#bbbbbb"/>
<rect x="768" y="240" width="24" height="24" fill="#000000"/>
<rect x="792" y="240" width="24" height="24" fill="#000000"/>
<rect x="816" y="240" width="24" height="24" fill="#bbbbbb"/>
<rect x="840" y="240" width="24" height="24" fill="#bbbbbb"/>
<rect x="864" y="240" width="24" height="24" fill="#888888"/>
<rect x="888" y="240" width="24" height="24" fill="#444444"/>
<rect x="144" y="264" width="24" height="24" fill="#444444"/>
<rect x="168" y="264" width="24" height="24" fill="#bbbbbb"/>
<rect x="192" y="264" width="24" height="24" fill="#888888"/>
<rect x="216" y="264" width="24" height="24" fill="#888888"/>
<rect x="240" y="264" width="24" height="24" fill="#000000"/>
<rect x="264" y="264" width="24" height="24" fill="#000000"/>
<rect x="288" y="264" width="24" height="24" fill="#888888"/>
<rect x="312" y="264" width="24" height="24" fill="#888888"/>
<rect x="336" y="264" width="24" height="24" fill="#bbbbbb"/>
<rect x="360" y="264" width="24" height="24" fill="#bbbbbb"/>
<rect x="384" y="264" width="24" height="24" fill="#888888"/>
<rect x="408" y="264" width="24" height="24" fill="#888888"/>
<rect x="432" y="264" width="24" height="24" fill="#bbbbbb"/>
<rect x="456" y="264" width="24" height="24" fill="#bbbbbb"/>
<rect x="480" y="264" width="24" height="24" fill="#888888"/>
<rect x="504" y="264" width="24" height="24" fill="#888888"/>
<rect x="528" y="264" width="24" height="24" fill="#bbbbbb"/>
<rect x="552" y="264" width="24" height="24" fill="#bbbbbb"/>
<rect x="576" y="264" width="24" height="24" fill="#888888"/>
<rect x="600" y="264" width="24" height="24" fill="#888888"/>
<rect x="624" y="264" width="24" height="24" fill="#bbbbbb"/>
<rect x="648" y="264" width="24" height="24" fill="#bbbbbb"/>
<rect x="672" y="264" width="24" height="24" fill="#888888"/>
<rect x="696" y="264" width="24" height="24" fill="#888888"/>
<rect x="720" y="264" width="24" height="24" fill="#bbbbbb"/>
<rect x="744" y="264" width="24" height="24" fill="#bbbbbb"/>
<rect x="768" y="264" width="24" height="24" fill="#000000"/>
<rect x="792" y="264" width="24" height="24" fill="#000000"/>
<rect x="816" y="264" width="24" height="24" fill="#bbbbbb"/>
<rect x="840" y="264" width="24" height="24" fill="#bbbbbb"/>
<rect x="864" y="264" width="24" height="24" fill="#888888"/>
<rect x="888" y="264" width="24" height="24" fill="#444444"/>
<rect x="144" y="288" width="24" height="24" fill="#444444"/>
<rect x="168" y="288" width="24" height="24" fill="#888888"/>
<rect x="192" y="288" width="24" height="24" fill="#bbbbbb"/>
<rect x="216" y="288" width="24" height="24" fill="#bbbbbb"/>
<rect x="240" y="288" width="24" height="24" fill="#888888"/>
<rect x="264" y="288" width="24" height="24" fill="#888888"/>
<rect x="288" y="288" width="24" height="24" fill="#000000"/>
<rect x="312" y="288" width="24" height="24" fill="#000000"/>
<rect x="336" y="288" width="24" height="24" fill="#000000"/>
<rect x="360" y="288" width="24" height="24" fill="#000000"/>
<rect x="384" y="288" width="24" height="24" fill="#bbbbbb"/>
<rect x="408" y="288" width="24" height="24" fill="#bbbbbb"/>
<rect x="432" y="288" width="24" height="24" fill="#888888"/>
<rect x="456" y="288" width="24" height="24" fill="#888888"/>
<rect x="480" y="288" width="24" height="24" fill="#bbbbbb"/>
<rect x="504" y="288" width="24" height="24" fill="#bbbbbb"/>
<rect x="528" y="288" width="24" height="24" fill="#888888"/>
<rect x="552" y="288" width="24" height="24" fill="#888888"/>
<rect x="576" y="288" width="24" height="24" fill="#bbbbbb"/>
<rect x="600" y="288" width="24" height="24" fill="#bbbbbb"/>
<rect x="624" y="288" width="24" height="24" fill="#888888"/>
<rect x="648" y="288" width="24" height="24" fill="#888888"/>
<rect x="672" y="288" width="24" height="24" fill="#000000"/>
<rect x="696" y="288" width="24" height="24" fill="#000000"/>
<rect x="720" y="288" width="24" height="24" fill="#000000"/>
<rect x="744" y="288" width="24" height="24" fill="#000000"/>
<rect x="768" y="288" width="24" height="24" fill="#bbbbbb"/>
<rect x="792" y="288" width="24" height="24" fill="#bbbbbb"/>
<rect x="816" y="288" width="24" height="24" fill="#888888"/>
<rect x="840" y="288" width="24" height="24" fill="#888888"/>
<rect x="864" y="288" width="24" height="24" fill="#bbbbbb"/>
<rect x="888" y="288" width="24" height="24" fill="#bbbbbb"/>
<rect x="912" y="288" width="24" height="24" fill="#444444"/>
<rect x="936" y="288" width="24" height="24" fill="#444444"/>
<rect x="960" y="288" width="24" height="24" fill="#444444"/>
<rect x="984" y="288" width="24" height="24" fill="#444444"/>
<rect x="144" y="312" width="24" height="24" fill="#444444"/>
<rect x="168" y="312" width="24" height="24" fill="#888888"/>
<rect x="192" y="312" width="24" height="24" fill="#bbbbbb"/>
<rect x="216" y="312" width="24" height="24" fill="#bbbbbb"/>
<rect x="240" y="312" width="24" height="24" fill="#888888"/>
<rect x="264" y="312" width="24" height="24" fill="#888888"/>
<rect x="288" y="312" width="24" height="24" fill="#000000"/>
<rect x="312" y="312" width="24" height="24" fill="#000000"/>
<rect x="336" y="312" width="24" height="24" fill="#000000"/>
<rect x="360" y="312" width="24" height="24" fill="#000000"/>
<rect x="384" y="312" width="24" height="24" fill="#bbbbbb"/>
<rect x="408" y="312" width="24" height="24" fill="#bbbbbb"/>
<rect x="432" y="312" width="24" height="24" fill="#888888"/>
<rect x="456" y="312" width="24" height="24" fill="#888888"/>
<rect x="480" y="312" width="24" height="24" fill="#bbbbbb"/>
<rect x="504" y="312" width="24" height="24" fill="#bbbbbb"/>
<rect x="528" y="312" width="24" height="24" fill="#888888"/>
<rect x="552" y="312" width="24" height="24" fill="#888888"/>
<rect x="576" y="312" width="24" height="24" fill="#bbbbbb"/>
<rect x="600" y="312" width="24" height="24" fill="#bbbbbb"/>
<rect x="624" y="312" width="24" height="24" fill="#888888"/>
<rect x="648" y="312" width="24" height="24" fill="#888888"/>
<rect x="672" y="312" width="24" height="24" fill="#000000"/>
<rect x="696" y="312" width="24" height="24" fill="#000000"/>
<rect x="720" y="312" width="24" height="24" fill="#000000"/>
<rect x="744" y="312" width="24" height="24" fill="#000000"/>
<rect x="768" y="312" width="24" height="24" fill="#bbbbbb"/>
<rect x="792" y="312" width="24" height="24" fill="#bbbbbb"/>
<rect x="816" y="312" width="24" height="24" fill="#888888"/>
<rect x="840" y="312" width="24" height="24" fill="#888888"/>
<rect x="864" y="312" width="24" height="24" fill="#bbbbbb"/>
<rect x="888" y="312" width="24" height="24" fill="#bbbbbb"/>
<rect x="912" y="312" width="24" height="24" fill="#888888"/>
<rect x="936" y="312" width="24" height="24" fill="#888888"/>
<rect x="960" y="312" width="24" height="24" fill="#bbbbbb"/>
<rect x="984" y="312" width="24" height="24" fill="#444444"/>
<rect x="144" y="336" width="24" height="24" fill="#444444"/>
<rect x="168" y="336" width="24" height="24" fill="#bbbbbb"/>
<rect x="192" y="336" width="24" height="24" fill="#888888"/>
<rect x="216" y="336" width="24" height="24" fill="#888888"/>
<rect x="240" y="336" width="24" height="24" fill="#bbbbbb"/>
<rect x="264" y="336" width="24" height="24" fill="#bbbbbb"/>
<rect x="288" y="336" width="24" height="24" fill="#000000"/>
<rect x="312" y="336" width="24" height="24" fill="#000000"/>
<rect x="336" y="336" width="24" height="24" fill="#000000"/>
<rect x="360" y="336" width="24" height="24" fill="#000000"/>
<rect x="384" y="336" width="24" height="24" fill="#888888"/>
<rect x="408" y="336" width="24" height="24" fill="#888888"/>
<rect x="432" y="336" width="24" height="24" fill="#bbbbbb"/>
<rect x="456" y="336" width="24" height="24" fill="#bbbbbb"/>
<rect x="480" y="336" width="24" height="24" fill="#888888"/>
<rect x="504" y="336" width="24" height="24" fill="#888888"/>
<rect x="528" y="336" width="24" height="24" fill="#bbbbbb"/>
<rect x="552" y="336" width="24" height="24" fill="#bbbbbb"/>
<rect x="576" y="336" width="24" height="24" fill="#888888"/>
<rect x="600" y="336" width="24" height="24" fill="#888888"/>
<rect x="624" y="336" width="24" height="24" fill="#bbbbbb"/>
<rect x="648" y="336" width="24" height="24" fill="#bbbbbb"/>
<rect x="672" y="336" width="24" height="24" fill="#000000"/>
<rect x="696" y="336" width="24" height="24" fill="#000000"/>
<rect x="720" y="336" width="24" height="24" fill="#000000"/>
<rect x="744" y="336" width="24" height="24" fill="#000000"/>
<rect x="768" y="336" width="24" height="24" fill="#888888"/>
<rect x="792" y="336" width="24" height="24" fill="#888888"/>
<rect x="816" y="336" width="24" height="24" fill="#bbbbbb"/>
<rect x="840" y="336" width="24" height="24" fill="#bbbbbb"/>
<rect x="864" y="336" width="24" height="24" fill="#888888"/>
<rect x="888" y="336" width="24" height="24" fill="#888888"/>
<rect x="912" y="336" width="24" height="24" fill="#bbbbbb"/>
<rect x="936" y="336" width="24" height="24" fill="#bbbbbb"/>
<rect x="960" y="336" width="24" height="24" fill="#888888"/>
<rect x="984" y="336" width="24" height="24" fill="#444444"/>
<rect x="144" y="360" width="24" height="24" fill="#444444"/>
<rect x="168" y="360" width="24" height="24" fill="#bbbbbb"/>
<rect x="192" y="360" width="24" height="24" fill="#888888"/>
<rect x="216" y="360" width="24" height="24" fill="#888888"/>
<rect x="240" y="360" width="24" height="24" fill="#bbbbbb"/>
<rect x="264" y="360" width="24" height="24" fill="#bbbbbb"/>
<rect x="288" y="360" width="24" height="24" fill="#000000"/>
<rect x="312" y="360" width="24" height="24" fill="#000000"/>
<rect x="336" y="360" width="24" height="24" fill="#000000"/>
<rect x="360" y="360" width="24" height="24" fill="#000000"/>
<rect x="384" y="360" width="24" height="24" fill="#888888"/>
<rect x="408" y="360" width="24" height="24" fill="#888888"/>
<rect x="432" y="360" width="24" height="24" fill="#bbbbbb"/>
<rect x="456" y="360" width="24" height="24" fill="#bbbbbb"/>
<rect x="480" y="360" width="24" height="24" fill="#888888"/>
<rect x="504" y="360" width="24" height="24" fill="#888888"/>
<rect x="528" y="360" width="24" height="24" fill="#bbbbbb"/>
<rect x="552" y="360" width="24" height="24" fill="#bbbbbb"/>
<rect x="576" y="360" width="24" height="24" fill="#888888"/>
<rect x="600" y="360" width="24" height="24" fill="#888888"/>
<rect x="624" y="360" width="24" height="24" fill="#bbbbbb"/>
<rect x="648" y="360" width="24" height="24" fill="#bbbbbb"/>
<rect x="672" y="360" width="24" height="24" fill="#000000"/>
<rect x="696" y="360" width="24" height="24" fill="#000000"/>
<rect x="720" y="360" width="24" height="24" fill="#000000"/>
<rect x="744" y="360" width="24" height="24" fill="#000000"/>
<rect x="768" y="360" width="24" height="24" fill="#888888"/>
<rect x="792" y="360" width="24" height="24" fill="#888888"/>
<rect x="816" y="360" width="24" height="24" fill="#bbbbbb"/>
<rect x="840" y="360" width="24" height="24" fill="#bbbbbb"/>
<rect x="864" y="360" width="24" height="24" fill="#888888"/>
<rect x="888" y="360" width="24" height="24" fill="#888888"/>
<rect x="912" y="360" width="24" height="24" fill="#bbbbbb"/>
<rect x="936" y="360" width="24" height="24" fill="#bbbbbb"/>
<rect x="960" y="360" width="24" height="24" fill="#888888"/>
<rect x="984" y="360" width="24" height="24" fill="#444444"/>
<rect x="144" y="384" width="24" height="24" fill="#444444"/>
<rect x="168" y="384" width="24" height="24" fill="#888888"/>
<rect x="192" y="384" width="24" height="24" fill="#bbbbbb"/>
<rect x="216" y="384" width="24" height="24" fill="#bbbbbb"/>
<rect x="240" y="384" width="24" height="24" fill="#888888"/>
<rect x="264" y="384" width="24" height="24" fill="#888888"/>
<rect x="288" y="384" width="24" height="24" fill="#bbbbbb"/>
<rect x="312" y="384" width="24" height="24" fill="#bbbbbb"/>
<rect x="336" y="384" width="24" height="24" fill="#888888"/>
<rect x="360" y="384" width="24" height="24" fill="#888888"/>
<rect x="384" y="384" width="24" height="24" fill="#bbbbbb"/>
<rect x="408" y="384" width="24" height="24" fill="#bbbbbb"/>
<rect x="432" y="384" width="24" height="24" fill="#888888"/>
<rect x="456" y="384" width="24" height="24" fill="#888888"/>
<rect x="480" y="384" width="24" height="24" fill="#bbbbbb"/>
<rect x="504" y="384" width="24" height="24" fill="#bbbbbb"/>
<rect x="528" y="384" width="24" height="24" fill="#888888"/>
<rect x="552" y="384" width="24" height="24" fill="#888888"/>
<rect x="576" y="384" width="24" height="24" fill="#bbbbbb"/>
<rect x="600" y="384" width="24" height="24" fill="#bbbbbb"/>
<rect x="624" y="384" width="24" height="24" fill="#888888"/>
<rect x="648" y="384" width="24" height="24" fill="#888888"/>
<rect x="672" y="384" width="24" height="24" fill="#bbbbbb"/>
<rect x="696" y="384" width="24" height="24" fill="#bbbbbb"/>
<rect x="720" y="384" width="24" height="24" fill="#888888"/>
<rect x="744" y="384" width="24" height="24" fill="#888888"/>
<rect x="768" y="384" width="24" height="24" fill="#bbbbbb"/>
<rect x="792" y="384" width="24" height="24" fill="#bbbbbb"/>
<rect x="816" y="384" width="24" height="24" fill="#888888"/>
<rect x="840" y="384" width="24" height="24" fill="#888888"/>
<rect x="864" y="384" width="24" height="24" fill="#bbbbbb"/>
<rect x="888" y="384" width="24" height="24" fill="#bbbbbb"/>
<rect x="912" y="384" width="24" height="24" fill="#888888"/>
<rect x="936" y="384" width="24" height="24" fill="#888888"/>
<rect x="960" y="384" width="24" height="24" fill="#bbbbbb"/>
<rect x="984" y="384" width="24" height="24" fill="#444444"/>
<rect x="144" y="408" width="24" height="24" fill="#444444"/>
<rect x="168" y="408" width="24" height="24" fill="#888888"/>
<rect x="192" y="408" width="24" height="24" fill="#bbbbbb"/>
<rect x="216" y="408" width="24" height="24" fill="#bbbbbb"/>
<rect x="240" y="408" width="24" height="24" fill="#888888"/>
<rect x="264" y="408" width="24" height="24" fill="#888888"/>
<rect x="288" y="408" width="24" height="24" fill="#bbbbbb"/>
<rect x="312" y="408" width="24" height="24" fill="#bbbbbb"/>
<rect x="336" y="408" width="24" height="24" fill="#888888"/>
<rect x="360" y="408" width="24" height="24" fill="#888888"/>
<rect x="384" y="408" width="24" height="24" fill="#bbbbbb"/>
<rect x="408" y="408" width="24" height="24" fill="#bbbbbb"/>
<rect x="432" y="408" width="24" height="24" fill="#888888"/>
<rect x="456" y="408" width="24" height="24" fill="#888888"/>
<rect x="480" y="408" width="24" height="24" fill="#bbbbbb"/>
<rect x="504" y="408" width="24" height="24" fill="#bbbbbb"/>
<rect x="528" y="408" width="24" height="24" fill="#888888"/>
<rect x="552" y="408" width="24" height="24" fill="#888888"/>
<rect x="576" y="408" width="24" height="24" fill="#bbbbbb"/>
<rect x="600" y="408" width="24" height="24" fill="#bbbbbb"/>
<rect x="624" y="408" width="24" height="24" fill="#888888"/>
<rect x="648" y="408" width="24" height="24" fill="#888888"/>
<rect x="672" y="408" width="24" height="24" fill="#bbbbbb"/>
<rect x="696" y="408" width="24" height="24" fill="#bbbbbb"/>
<rect x="720" y="408" width="24" height="24" fill="#888888"/>
<rect x="744" y="408" width="24" height="24" fill="#888888"/>
<rect x="768" y="408" width="24" height="24" fill="#bbbbbb"/>
<rect x="792" y="408" width="24" height="24" fill="#bbbbbb"/>
<rect x="816" y="408" width="24" height="24" fill="#888888"/>
<rect x="840" y="408" width="24" height="24" fill="#888888"/>
<rect x="864" y="408" width="24" height="24" fill="#bbbbbb"/>
<rect x="888" y="408" width="24" height="24" fill="#bbbbbb"/>
<rect x="912" y="408" width="24" height="24" fill="#444444"/>
<rect x="936" y="408" width="24" height="24" fill="#444444"/>
<rect x="960" y="408" width="24" height="24" fill="#444444"/>
<rect x="984" y="408" width="24" height="24" fill="#444444"/>
<rect x="144" y="432" width="24" height="24" fill="#444444"/>
<rect x="168" y="432" width="24" height="24" fill="#bbbbbb"/>
<rect x="192" y="432" width="24" height="24" fill="#888888"/>
<rect x="216" y="432" width="24" height="24" fill="#888888"/>
<rect x="240" y="432" width="24" height="24" fill="#bbbbbb"/>
<rect x="264" y="432" width="24" height="24" fill="#bbbbbb"/>
<rect x="288" y="432" width="24" height="24" fill="#888888"/>
<rect x="312" y="432" width="24" height="24" fill="#888888"/>
<rect x="336" y="432" width="24" height="24" fill="#bbbbbb"/>
<rect x="360" y="432" width="24" height="24" fill="#bbbbbb"/>
<rect x="384" y="432" width="24" height="24" fill="#888888"/>
<rect x="408" y="432" width="24" height="24" fill="#888888"/>
<rect x="432" y="432" width="24" height="24" fill="#bbbbbb"/>
<rect x="456" y="432" width="24" height="24" fill="#bbbbbb"/>
<rect x="480" y="432" width="24" height="24" fill="#888888"/>
<rect x="504" y="432" width="24" height="24" fill="#888888"/>
<rect x="528" y="432" width="24" height="24" fill="#bbbbbb"/>
<rect x="552" y="432" width="24" height="24" fill="#bbbbbb"/>
<rect x="576" y="432" width="24" height="24" fill="#888888"/>
<rect x="600" y="432" width="24" height="24" fill="#888888"/>
<rect x="624" y="432" width="24" height="24" fill="#bbbbbb"/>
<rect x="648" y="432" width="24" height="24" fill="#bbbbbb"/>
<rect x="672" y="432" width="24" height="24" fill="#888888"/>
<rect x="696" y="432" width="24" height="24" fill="#888888"/>
<rect x="720" y="432" width="24" height="24" fill="#bbbbbb"/>
<rect x="744" y="432" width="24" height="24" fill="#bbbbbb"/>
<rect x="768" y="432" width="24" height="24" fill="#888888"/>
<rect x="792" y="432" width="24" height="24" fill="#888888"/>
<rect x="816" y="432" width="24" height="24" fill="#bbbbbb"/>
<rect x="840" y="432" width="24" height="24" fill="#bbbbbb"/>
<rect x="864" y="432" width="24" height="24" fill="#888888"/>
<rect x="888" y="432" width="24" height="24" fill="#444444"/>
<rect x="144" y="456" width="24" height="24" fill="#444444"/>
<rect x="168" y="456" width="24" height="24" fill="#bbbbbb"/>
<rect x="192" y="456" width="24" height="24" fill="#888888"/>
<rect x="216" y="456" width="24" height="24" fill="#888888"/>
<rect x="240" y="456" width="24" height="24" fill="#bbbbbb"/>
<rect x="264" y="456" width="24" height="24" fill="#bbbbbb"/>
<rect x="288" y="456" width="24" height="24" fill="#888888"/>
<rect x="312" y="456" width="24" height="24" fill="#888888"/>
<rect x="336" y="456" width="24" height="24" fill="#bbbbbb"/>
<rect x="360" y="456" width="24" height="24" fill="#bbbbbb"/>
<rect x="384" y="456" width="24" height="24" fill="#888888"/>
<rect x="408" y="456" width="24" height="24" fill="#888888"/>
<rect x="432" y="456" width="24" height="24" fill="#bbbbbb"/>
<rect x="456" y="456" width="24" height="24" fill="#bbbbbb"/>
<rect x="480" y="456" width="24" height="24" fill="#888888"/>
<rect x="504" y="456" width="24" height="24" fill="#888888"/>
<rect x="528" y="456" width="24" height="24" fill="#bbbbbb"/>
<rect x="552" y="456" width="24" height="24" fill="#bbbbbb"/>
<rect x="576" y="456" width="24" height="24" fill="#888888"/>
<rect x="600" y="456" width="24" height="24" fill="#888888"/>
<rect x="624" y="456" width="24" height="24" fill="#bbbbbb"/>
<rect x="648" y="456" width="24" height="24" fill="#bbbbbb"/>
<rect x="672" y="456" width="24" height="24" fill="#888888"/>
<rect x="696" y="456" width="24" height="24" fill="#888888"/>
<rect x="720" y="456" width="24" height="24" fill="#bbbbbb"/>
<rect x="744" y="456" width="24" height="24" fill="#bbbbbb"/>
<rect x="768" y="456" width="24" height="24" fill="#888888"/>
<rect x="792" y="456" width="24" height="24" fill="#888888"/>
<rect x="816" y="456" width="24" height="24" fill="#bbbbbb"/>
<rect x="840" y="456" width="24" height="24" fill="#bbbbbb"/>
<rect x="864" y="456" width="24" height="24" fill="#888888"/>
<rect x="888" y="456" width="24" height="24" fill="#444444"/>
<rect x="144" y="480" width="24" height="24" fill="#444444"/>
<rect x="168" y="480" width="24" height="24" fill="#888888"/>
<rect x="192" y="480" width="24" height="24" fill="#bbbbbb"/>
<rect x="216" y="480" width="24" height="24" fill="#bbbbbb"/>
<rect x="240" y="480" width="24" height="24" fill="#888888"/>
<rect x="264" y="480" width="24" height="24" fill="#888888"/>
<rect x="288" y="480" width="24" height="24" fill="#bbbbbb"/>
<rect x="312" y="480" width="24" height="24" fill="#bbbbbb"/>
<rect x="336" y="480" width="24" height="24" fill="#888888"/>
<rect x="360" y="480" width="24" height="24" fill="#888888"/>
<rect x="384" y="480" width="24" height="24" fill="#bbbbbb"/>
<rect x="408" y="480" width="24" height="24" fill="#bbbbbb"/>
<rect x="432" y="480" width="24" height="24" fill="#000000"/>
<rect x="456" y="480" width="24" height="24" fill="#000000"/>
<rect x="480" y="480" width="24" height="24" fill="#bbbbbb"/>
<rect x="504" y="480" width="24" height="24" fill="#bbbbbb"/>
<rect x="528" y="480" width="24" height="24" fill="#000000"/>
<rect x="552" y="480" width="24" height="24" fill="#000000"/>
<rect x="576" y="480" width="24" height="24" fill="#bbbbbb"/>
<rect x="600" y="480" width="24" height="24" fill="#bbbbbb"/>
<rect x="624" y="480" width="24" height="24" fill="#888888"/>
<rect x="648" y="480" width="24" height="24" fill="#888888"/>
<rect x="672" y="480" width="24" height="24" fill="#bbbbbb"/>
<rect x="696" y="480" width="24" height="24" fill="#bbbbbb"/>
<rect x="720" y="480" width="24" height="24" fill="#888888"/>
<rect x="744" y="480" width="24" height="24" fill="#888888"/>
<rect x="768" y="480" width="24" height="24" fill="#bbbbbb"/>
<rect x="792" y="480" width="24" height="24" fill="#bbbbbb"/>
<rect x="816" y="480" width="24" height="24" fill="#888888"/>
<rect x="840" y="480" width="24" height="24" fill="#888888"/>
<rect x="864" y="480" width="24" height="24" fill="#bbbbbb"/>
<rect x="888" y="480" width="24" height="24" fill="#444444"/>
<rect x="144" y="504" width="24" height="24" fill="#444444"/>
<rect x="168" y="504" width="24" height="24" fill="#888888"/>
<rect x="192" y="504" width="24" height="24" fill="#bbbbbb"/>
<rect x="216" y="504" width="24" height="24" fill="#bbbbbb"/>
<rect x="240" y="504" width="24" height="24" fill="#888888"/>
<rect x="264" y="504" width="24" height="24" fill="#888888"/>
<rect x="288" y="504" width="24" height="24" fill="#bbbbbb"/>
<rect x="312" y="504" width="24" height="24" fill="#bbbbbb"/>
<rect x="336" y="504" width="24" height="24" fill="#888888"/>
<rect x="360" y="504" width="24" height="24" fill="#888888"/>
<rect x="384" y="504" width="24" height="24" fill="#bbbbbb"/>
<rect x="408" y="504" width="24" height="24" fill="#bbbbbb"/>
<rect x="432" y="504" width="24" height="24" fill="#000000"/>
<rect x="456" y="504" width="24" height="24" fill="#000000"/>
<rect x="480" y="504" width="24" height="24" fill="#bbbbbb"/>
<rect x="504" y="504" width="24" height="24" fill="#bbbbbb"/>
<rect x="528" y="504" width="24" height="24" fill="#000000"/>
<rect x="552" y="504" width="24" height="24" fill="#000000"/>
<rect x="576" y="504" width="24" height="24" fill="#bbbbbb"/>
<rect x="600" y="504" width="24" height="24" fill="#bbbbbb"/>
<rect x="624" y="504" width="24" height="24" fill="#888888"/>
<rect x="648" y="504" width="24" height="24" fill="#888888"/>
<rect x="672" y="504" width="24" height="24" fill="#bbbbbb"/>
<rect x="696" y="504" width="24" height="24" fill="#bbbbbb"/>
<rect x="720" y="504" width="24" height="24" fill="#888888"/>
<rect x="744" y="504" width="24" height="24" fill="#888888"/>
<rect x="768" y="504" width="24" height="24" fill="#bbbbbb"/>
<rect x="792" y="504" width="24" height="24" fill="#bbbbbb"/>
<rect x="816" y="504" width="24" height="24" fill="#888888"/>
<rect x="840" y="504" width="24" height="24" fill="#888888"/>
<rect x="864" y="504" width="24" height="24" fill="#bbbbbb"/>
<rect x="888" y="504" width="24" height="24" fill="#444444"/>
<rect x="144" y="528" width="24" height="24" fill="#444444"/>
<rect x="168" y="528" width="24" height="24" fill="#777777"/>
<rect x="192" y="528" width="24" height="24" fill="#555555"/>
<rect x="216" y="528" width="24" height="24" fill="#555555"/>
<rect x="240" y="528" width="24" height="24" fill="#777777"/>
<rect x="264" y="528" width="24" height="24" fill="#777777"/>
<rect x="288" y="528" width="24" height="24" fill="#555555"/>
<rect x="312" y="528" width="24" height="24" fill="#555555"/>
<rect x="336" y="528" width="24" height="24" fill="#777777"/>
<rect x="360" y="528" width="24" height="24" fill="#777777"/>
<rect x="384" y="528" width="24" height="24" fill="#555555"/>
<rect x="408" y="528" width="24" height="24" fill="#555555"/>
<rect x="432" y="528" width="24" height="24" fill="#777777"/>
<rect x="456" y="528" width="24" height="24" fill="#777777"/>
<rect x="480" y="528" width="24" height="24" fill="#000000"/>
<rect x="504" y="528" width="24" height="24" fill="#000000"/>
<rect x="528" y="528" width="24" height="24" fill="#777777"/>
<rect x="552" y="528" width="24" height="24" fill="#777777"/>
<rect x="576" y="528" width="24" height="24" fill="#000000"/>
<rect x="600" y="528" width="24" height="24" fill="#000000"/>
<rect x="624" y="528" width="24" height="24" fill="#777777"/>
<rect x="648" y="528" width="24" height="24" fill="#777777"/>
<rect x="672" y="528" width="24" height="24" fill="#555555"/>
<rect x="696" y="528" width="24" height="24" fill="#555555"/>
<rect x="720" y="528" width="24" height="24" fill="#777777"/>
<rect x="744" y="528" width="24" height="24" fill="#777777"/>
<rect x="768" y="528" width="24" height="24" fill="#555555"/>
<rect x="792" y="528" width="24" height="24" fill="#555555"/>
<rect x="816" y="528" width="24" height="24" fill="#777777"/>
<rect x="840" y="528" width="24" height="24" fill="#777777"/>
<rect x="864" y="528" width="24" height="24" fill="#555555"/>
<rect x="888" y="528" width="24" height="24" fill="#444444"/>
<rect x="144" y="552" width="24" height="24" fill="#444444"/>
<rect x="168" y="552" width="24" height="24" fill="#777777"/>
<rect x="192" y="552" width="24" height="24" fill="#555555"/>
<rect x="216" y="552" width="24" height="24" fill="#555555"/>
<rect x="240" y="552" width="24" height="24" fill="#777777"/>
<rect x="264" y="552" width="24" height="24" fill="#777777"/>
<rect x="288" y="552" width="24" height="24" fill="#555555"/>
<rect x="312" y="552" width="24" height="24" fill="#555555"/>
<rect x="336" y="552" width="24" height="24" fill="#777777"/>
<rect x="360" y="552" width="24" height="24" fill="#777777"/>
<rect x="384" y="552" width="24" height="24" fill="#555555"/>
<rect x="408" y="552" width="24" height="24" fill="#555555"/>
<rect x="432" y="552" width="24" height="24" fill="#777777"/>
<rect x="456" y="552" width="24" height="24" fill="#777777"/>
<rect x="480" y="552" width="24" height="24" fill="#000000"/>
<rect x="504" y="552" width="24" height="24" fill="#000000"/>
<rect x="528" y="552" width="24" height="24" fill="#777777"/>
<rect x="552" y="552" width="24" height="24" fill="#777777"/>
<rect x="576" y="552" width="24" height="24" fill="#000000"/>
<rect x="600" y="552" width="24" height="24" fill="#000000"/>
<rect x="624" y="552" width="24" height="24" fill="#777777"/>
<rect x="648" y="552" width="24" height="24" fill="#777777"/>
<rect x="672" y="552" width="24" height="24" fill="#555555"/>
<rect x="696" y="552" width="24" height="24" fill="#555555"/>
<rect x="720" y="552" width="24" height="24" fill="#777777"/>
<rect x="744" y="552" width="24" height="24" fill="#777777"/>
<rect x="768" y="552" width="24" height="24" fill="#555555"/>
<rect x="792" y="552" width="24" height="24" fill="#555555"/>
<rect x="816" y="552" width="24" height="24" fill="#777777"/>
<rect x="840" y="552" width="24" height="24" fill="#777777"/>
<rect x="864" y="552" width="24" height="24" fill="#555555"/>
<rect x="888" y="552" width="24" height="24" fill="#444444"/>
<rect x="144" y="576" width="24" height="24" fill="#444444"/>
<rect x="168" y="576" width="24" height="24" fill="#555555"/>
<rect x="192" y="576" width="24" height="24" fill="#777777"/>
<rect x="216" y="576" width="24" height="24" fill="#777777"/>
<rect x="240" y="576" width="24" height="24" fill="#555555"/>
<rect x="264" y="576" width="24" height="24" fill="#555555"/>
<rect x="288" y="576" width="24" height="24" fill="#777777"/>
<rect x="312" y="576" width="24" height="24" fill="#777777"/>
<rect x="336" y="576" width="24" height="24" fill="#555555"/>
<rect x="360" y="576" width="24" height="24" fill="#555555"/>
<rect x="384" y="576" width="24" height="24" fill="#777777"/>
<rect x="408" y="576" width="24" height="24" fill="#777777"/>
<rect x="432" y="576" width="24" height="24" fill="#555555"/>
<rect x="456" y="576" width="24" height="24" fill="#555555"/>
<rect x="480" y="576" width="24" height="24" fill="#777777"/>
<rect x="504" y="576" width="24" height="24" fill="#777777"/>
<rect x="528" y="576" width="24" height="24" fill="#555555"/>
<rect x="552" y="576" width="24" height="24" fill="#555555"/>
<rect x="576" y="576" width="24" height="24" fill="#777777"/>
<rect x="600" y="576" width="24" height="24" fill="#777777"/>
<rect x="624" y="576" width="24" height="24" fill="#555555"/>
<rect x="648" y="576" width="24" height="24" fill="#555555"/>
<rect x="672" y="576" width="24" height="24" fill="#777777"/>
<rect x="696" y="576" width="24" height="24" fill="#777777"/>
<rect x="720" y="576" width="24" height="24" fill="#555555"/>
<rect x="744" y="576" width="24" height="24" fill="#555555"/>
<rect x="768" y="576" width="24" height="24" fill="#777777"/>
<rect x="792" y="576" width="24" height="24" fill="#777777"/>
<rect x="816" y="576" width="24" height="24" fill="#555555"/>
<rect x="840" y="576" width="24" height="24" fill="#555555"/>
<rect x="864" y="576" width="24" height="24" fill="#777777"/>
<rect x="888" y="576" width="24" height="24" fill="#444444"/>
<rect x="144" y="600" width="24" height="24" fill="#444444"/>
<rect x="168" y="600" width="24" height="24" fill="#444444"/>
<rect x="192" y="600" width="24" height="24" fill="#444444"/>
<rect x="216" y="600" width="24" height="24" fill="#444444"/>
<rect x="240" y="600" width="24" height="24" fill="#555555"/>
<rect x="264" y="600" width="24" height="24" fill="#555555"/>
<rect x="288" y="600" width="24" height="24" fill="#777777"/>
<rect x="312" y="600" width="24" height="24" fill="#777777"/>
<rect x="336" y="600" width="24" height="24" fill="#555555"/>
<rect x="360" y="600" width="24" height="24" fill="#555555"/>
<rect x="384" y="600" width="24" height="24" fill="#444444"/>
<rect x="408" y="600" width="24" height="24" fill="#444444"/>
<rect x="432" y="600" width="24" height="24" fill="#444444"/>
<rect x="456" y="600" width="24" height="24" fill="#444444"/>
<rect x="480" y="600" width="24" height="24" fill="#444444"/>
<rect x="504" y="600" width="24" height="24" fill="#444444"/>
<rect x="528" y="600" width="24" height="24" fill="#444444"/>
<rect x="552" y="600" width="24" height="24" fill="#444444"/>
<rect x="576" y="600" width="24" height="24" fill="#444444"/>
<rect x="600" y="600" width="24" height="24" fill="#444444"/>
<rect x="624" y="600" width="24" height="24" fill="#444444"/>
<rect x="648" y="600" width="24" height="24" fill="#444444"/>
<rect x="672" y="600" width="24" height="24" fill="#777777"/>
<rect x="696" y="600" width="24" height="24" fill="#777777"/>
<rect x="720" y="600" width="24" height="24" fill="#555555"/>
<rect x="744" y="600" width="24" height="24" fill="#555555"/>
<rect x="768" y="600" width="24" height="24" fill="#777777"/>
<rect x="792" y="600" width="24" height="24" fill="#777777"/>
<rect x="816" y="600" width="24" height="24" fill="#444444"/>
<rect x="840" y="600" width="24" height="24" fill="#444444"/>
<rect x="864" y="600" width="24" height="24" fill="#444444"/>
<rect x="888" y="600" width="24" height="24" fill="#444444"/>
<rect x="240" y="624" width="24" height="24" fill="#444444"/>
<rect x="264" y="624" width="24" height="24" fill="#777777"/>
<rect x="288" y="624" width="24" height="24" fill="#555555"/>
<rect x="312" y="624" width="24" height="24" fill="#555555"/>
<rect x="336" y="624" width="24" height="24" fill="#777777"/>
<rect x="360" y="624" width="24" height="24" fill="#444444"/>
<rect x="672" y="624" width="24" height="24" fill="#444444"/>
<rect x="696" y="624" width="24" height="24" fill="#555555"/>
<rect x="720" y="624" width="24" height="24" fill="#777777"/>
<rect x="744" y="624" width="24" height="24" fill="#777777"/>
<rect x="768" y="624" width="24" height="24" fill="#555555"/>
<rect x="792" y="624" width="24" height="24" fill="#444444"/>
<rect x="240" y="648" width="24" height="24" fill="#444444"/>
<rect x="264" y="648" width="24" height="24" fill="#777777"/>
<rect x="288" y="648" width="24" height="24" fill="#555555"/>
<rect x="312" y="648" width="24" height="24" fill="#555555"/>
<rect x="336" y="648" width="24" height="24" fill="#777777"/>
<rect x="360" y="648" width="24" height="24" fill="#444444"/>
<rect x="672" y="648" width="24" height="24" fill="#444444"/>
<rect x="696" y="648" width="24" height="24" fill="#555555"/>
<rect x="720" y="648" width="24" height="24" fill="#777777"/>
<rect x="744" y="648" width="24" height="24" fill="#777777"/>
<rect x="768" y="648" width="24" height="24" fill="#555555"/>
<rect x="792" y="648" width="24" height="24" fill="#444444"/>
<rect x="240" y="672" width="24" height="24" fill="#444444"/>
<rect x="264" y="672" width="24" height="24" fill="#555555"/>
<rect x="288" y="672" width="24" height="24" fill="#777777"/>
<rect x="312" y="672" width="24" height="24" fill="#777777"/>
<rect x="336" y="672" width="24" height="24" fill="#555555"/>
<rect x="360" y="672" width="24" height="24" fill="#444444"/>
<rect x="672" y="672" width="24" height="24" fill="#444444"/>
<rect x="696" y="672" width="24" height="24" fill="#777777"/>
<rect x="720" y="672" width="24" height="24" fill="#555555"/>
<rect x="744" y="672" width="24" height="24" fill="#555555"/>
<rect x="768" y="672" width="24" height="24" fill="#777777"/>
<rect x="792" y="672" width="24" height="24" fill="#444444"/>
<rect x="240" y="696" width="24" height="24" fill="#444444"/>
<rect x="264" y="696" width="24" height="24" fill="#444444"/>
<rect x="288" y="696" width="24" height="24" fill="#444444"/>
<rect x="312" y="696" width="24" height="24" fill="#444444"/>
<rect x="336" y="696" width="24" height="24" fill="#444444"/>
<rect x="360" y="696" width="24" height="24" fill="#444444"/>
<rect x="672" y="696" width="24" height="24" fill="#444444"/>
<rect x="696" y="696" width="24" height="24" fill="#444444"/>
<rect x="720" y="696" width="24" height="24" fill="#444444"/>
<rect x="744" y="696" width="24" height="24" fill="#444444"/>
<rect x="768" y="696" width="24" height="24" fill="#444444"/>
<rect x="792" y="696" width="24" height="24" fill="#444444"/>
</svg>
